<?xml version="1.0" encoding="UTF-8" standalone="no"?>
<!DOCTYPE svg PUBLIC "-//W3C//DTD SVG 1.1//EN" "http://www.w3.org/Graphics/SVG/1.1/DTD/svg11.dtd">
<svg width="100%" height="100%" viewBox="0 0 1511 1117" version="1.1" xmlns="http://www.w3.org/2000/svg" xmlns:xlink="http://www.w3.org/1999/xlink" xml:space="preserve" xmlns:serif="http://www.serif.com/" style="fill-rule:evenodd;clip-rule:evenodd;stroke-linejoin:round;stroke-miterlimit:2;">
    <g transform="matrix(1,0,0,1,-1593.83,-105.778)">
        <g transform="matrix(1,0,0,1,-317.126,-1088.65)">
            <g transform="matrix(0.968119,0,0,1.08465,286.451,-170.393)">
                <path d="M3238.59,1315.75C3238.59,1284.04 3209.76,1258.3 3174.24,1258.3L1742.36,1258.3C1706.84,1258.3 1678,1284.04 1678,1315.75L1678,2230.19C1678,2261.9 1706.84,2287.64 1742.36,2287.64L3174.24,2287.64C3209.76,2287.64 3238.59,2261.9 3238.59,2230.19L3238.59,1315.75Z" style="fill:rgb(0,129,198);"/>
            </g>
            <g transform="matrix(1,0,0,1,201.591,-6.6221)">
                <g transform="matrix(1,0,0,1,53.7454,226.958)">
                    <path d="M3050.16,1482.08C3050.16,1482.08 2638.59,1643.06 2532.07,1684.72C2450.83,1716.49 2340.63,1704.52 2259.39,1672.74C2152.87,1631.08 1771.91,1482.08 1771.91,1482.08L1771.91,1742.64C1771.91,1742.64 2177.55,1913.74 2299.99,1949.18C2366.16,1968.33 2440.14,1973.54 2506.55,1955.25C2631.59,1920.83 3050.16,1742.64 3050.16,1742.64L3050.16,1482.08Z" style="fill:white;"/>
                </g>
                <g transform="matrix(1,0,0,1,53.7454,-162.528)">
                    <path d="M3050.16,1482.08C3050.16,1482.08 2638.59,1643.06 2532.07,1684.72C2450.83,1716.49 2340.63,1704.52 2259.39,1672.74C2152.87,1631.08 1771.91,1482.08 1771.91,1482.08L1771.91,1742.64C1771.91,1742.64 2177.55,1913.74 2299.99,1949.18C2366.16,1968.33 2440.14,1973.54 2506.55,1955.25C2631.59,1920.83 3050.16,1742.64 3050.16,1742.64L3050.16,1482.08Z" style="fill:white;"/>
                </g>
            </g>
        </g>
    </g>
</svg>
